<mxfile host="65bd71144e" pages="2">
    <diagram id="1zcTAVt1k4KSup7FvAfL" name="Roadmap">
        <mxGraphModel dx="5600" dy="4870" grid="1" gridSize="10" guides="1" tooltips="1" connect="1" arrows="1" fold="1" page="1" pageScale="1" pageWidth="3300" pageHeight="2339" math="0" shadow="0">
            <root>
                <mxCell id="3D7FDG2aXA9G618_Kong-0"/>
                <mxCell id="3D7FDG2aXA9G618_Kong-1" parent="3D7FDG2aXA9G618_Kong-0"/>
                <mxCell id="75" value="" style="shape=rect;fillColor=#fff2cc;strokeColor=none;fontSize=24;html=1;whiteSpace=wrap;align=left;verticalAlign=top;spacing=5;rounded=0;" vertex="1" parent="3D7FDG2aXA9G618_Kong-1">
                    <mxGeometry x="-835" y="-711.6" width="850" height="271.6" as="geometry"/>
                </mxCell>
                <mxCell id="77" value="" style="shape=rect;fillColor=#fff2cc;strokeColor=none;fontSize=24;html=1;whiteSpace=wrap;align=left;verticalAlign=top;spacing=5;rounded=0;" vertex="1" parent="3D7FDG2aXA9G618_Kong-1">
                    <mxGeometry x="45" y="-710" width="850" height="270" as="geometry"/>
                </mxCell>
                <mxCell id="64" value="" style="shape=rect;fillColor=#fff2cc;strokeColor=none;fontSize=24;html=1;whiteSpace=wrap;align=left;verticalAlign=top;spacing=5;rounded=0;" vertex="1" parent="3D7FDG2aXA9G618_Kong-1">
                    <mxGeometry x="-860" y="-1138.4" width="850" height="180" as="geometry"/>
                </mxCell>
                <mxCell id="65" value="" style="shape=rect;fillColor=#fff2cc;strokeColor=none;fontSize=24;html=1;whiteSpace=wrap;align=left;verticalAlign=top;spacing=5;rounded=0;" vertex="1" parent="3D7FDG2aXA9G618_Kong-1">
                    <mxGeometry x="40" y="-1146.8000000000002" width="850" height="180" as="geometry"/>
                </mxCell>
                <mxCell id="60" value="" style="shape=rect;fillColor=#fff2cc;strokeColor=none;fontSize=24;html=1;whiteSpace=wrap;align=left;verticalAlign=top;spacing=5;rounded=0;" parent="3D7FDG2aXA9G618_Kong-1" vertex="1">
                    <mxGeometry x="-1740" y="-1138.4" width="850" height="180" as="geometry"/>
                </mxCell>
                <mxCell id="wGroBH12Sy7-OgBsN0fJ-4" value="" style="shape=rect;fillColor=#fff2cc;strokeColor=none;fontSize=24;html=1;whiteSpace=wrap;align=left;verticalAlign=top;spacing=5;rounded=0;" parent="3D7FDG2aXA9G618_Kong-1" vertex="1">
                    <mxGeometry x="-2500" y="-1146.8" width="740" height="196.8" as="geometry"/>
                </mxCell>
                <mxCell id="wGroBH12Sy7-OgBsN0fJ-5" value="Архитектурное решение" style="shape=rect;fillColor=#ffe6cc;strokeColor=#d79b00;fontSize=18;html=1;whiteSpace=wrap;align=left;verticalAlign=top;spacing=5;rounded=0;" parent="3D7FDG2aXA9G618_Kong-1" vertex="1">
                    <mxGeometry x="-2480" y="-1120" width="510" height="50" as="geometry"/>
                </mxCell>
                <mxCell id="wGroBH12Sy7-OgBsN0fJ-7" value="Команда инноваций" style="rounded=0;whiteSpace=wrap;html=1;fillColor=#f5f5f5;fontColor=#333333;strokeColor=#666666;fontSize=18;" parent="3D7FDG2aXA9G618_Kong-1" vertex="1">
                    <mxGeometry x="-2640" y="-1146.8" width="120" height="196.8" as="geometry"/>
                </mxCell>
                <mxCell id="wGroBH12Sy7-OgBsN0fJ-8" value="Команда инфрастуктуры" style="rounded=0;whiteSpace=wrap;html=1;fillColor=#f5f5f5;fontColor=#333333;strokeColor=#666666;fontSize=18;" parent="3D7FDG2aXA9G618_Kong-1" vertex="1">
                    <mxGeometry x="-2640" y="-930" width="120" height="190" as="geometry"/>
                </mxCell>
                <mxCell id="wGroBH12Sy7-OgBsN0fJ-9" value="Q1" style="shape=step;perimeter=stepPerimeter;whiteSpace=wrap;html=1;fixedSize=1;size=10;fillColor=#f5f5f5;strokeColor=#666666;fontSize=18;fontStyle=1;align=center;rounded=0;fontColor=#333333;" parent="3D7FDG2aXA9G618_Kong-1" vertex="1">
                    <mxGeometry x="-2500" y="-1240" width="730" height="74.4" as="geometry"/>
                </mxCell>
                <mxCell id="wGroBH12Sy7-OgBsN0fJ-15" value="Формирование доменных команд" style="shape=rect;fillColor=#ffe6cc;strokeColor=#d79b00;fontSize=18;html=1;whiteSpace=wrap;align=center;verticalAlign=top;spacing=5;rounded=0;" parent="3D7FDG2aXA9G618_Kong-1" vertex="1">
                    <mxGeometry x="-1970" y="-1050" width="200" height="60" as="geometry"/>
                </mxCell>
                <mxCell id="31" value="Q2" style="shape=step;perimeter=stepPerimeter;whiteSpace=wrap;html=1;fixedSize=1;size=10;fillColor=#f5f5f5;strokeColor=#666666;fontSize=18;fontStyle=1;align=center;rounded=0;fontColor=#333333;" parent="3D7FDG2aXA9G618_Kong-1" vertex="1">
                    <mxGeometry x="-1740" y="-1240" width="860" height="74.4" as="geometry"/>
                </mxCell>
                <mxCell id="53" value="Команда разработки" style="rounded=0;whiteSpace=wrap;html=1;fillColor=#f5f5f5;fontColor=#333333;strokeColor=#666666;fontSize=18;" parent="3D7FDG2aXA9G618_Kong-1" vertex="1">
                    <mxGeometry x="-2640" y="-720" width="120" height="280" as="geometry"/>
                </mxCell>
                <mxCell id="wGroBH12Sy7-OgBsN0fJ-6" value="Контроль соблюдения архитектуры" style="shape=rect;fillColor=#ffe6cc;strokeColor=#d79b00;fontSize=18;html=1;whiteSpace=wrap;align=center;verticalAlign=top;spacing=5;rounded=0;" parent="3D7FDG2aXA9G618_Kong-1" vertex="1">
                    <mxGeometry x="-1730" y="-1040" width="2600" height="60" as="geometry"/>
                </mxCell>
                <mxCell id="61" value="Обучение сотрудников" style="shape=rect;fillColor=#ffe6cc;strokeColor=#d79b00;fontSize=18;html=1;whiteSpace=wrap;align=center;verticalAlign=top;spacing=5;rounded=0;" vertex="1" parent="3D7FDG2aXA9G618_Kong-1">
                    <mxGeometry x="-1730" y="-1120" width="200" height="60" as="geometry"/>
                </mxCell>
                <mxCell id="62" value="Q3" style="shape=step;perimeter=stepPerimeter;whiteSpace=wrap;html=1;fixedSize=1;size=10;fillColor=#f5f5f5;strokeColor=#666666;fontSize=18;fontStyle=1;align=center;rounded=0;fontColor=#333333;" vertex="1" parent="3D7FDG2aXA9G618_Kong-1">
                    <mxGeometry x="-850" y="-1244" width="860" height="74.4" as="geometry"/>
                </mxCell>
                <mxCell id="63" value="Q4" style="shape=step;perimeter=stepPerimeter;whiteSpace=wrap;html=1;fixedSize=1;size=10;fillColor=#f5f5f5;strokeColor=#666666;fontSize=18;fontStyle=1;align=center;rounded=0;fontColor=#333333;" vertex="1" parent="3D7FDG2aXA9G618_Kong-1">
                    <mxGeometry x="40" y="-1244" width="860" height="74.4" as="geometry"/>
                </mxCell>
                <mxCell id="66" value="" style="shape=rect;fillColor=#fff2cc;strokeColor=none;fontSize=24;html=1;whiteSpace=wrap;align=left;verticalAlign=top;spacing=5;rounded=0;" vertex="1" parent="3D7FDG2aXA9G618_Kong-1">
                    <mxGeometry x="-2500" y="-930" width="740" height="196.8" as="geometry"/>
                </mxCell>
                <mxCell id="67" value="" style="shape=rect;fillColor=#fff2cc;strokeColor=none;fontSize=24;html=1;whiteSpace=wrap;align=left;verticalAlign=top;spacing=5;rounded=0;" vertex="1" parent="3D7FDG2aXA9G618_Kong-1">
                    <mxGeometry x="-1740" y="-930" width="850" height="196.8" as="geometry"/>
                </mxCell>
                <mxCell id="69" value="Установка и настройка Data Lakehouse" style="shape=rect;fillColor=#ffe6cc;strokeColor=#d79b00;fontSize=18;html=1;whiteSpace=wrap;align=center;verticalAlign=top;spacing=5;rounded=0;" vertex="1" parent="3D7FDG2aXA9G618_Kong-1">
                    <mxGeometry x="-1730" y="-910" width="200" height="60" as="geometry"/>
                </mxCell>
                <mxCell id="70" value="" style="shape=rect;fillColor=#fff2cc;strokeColor=none;fontSize=24;html=1;whiteSpace=wrap;align=left;verticalAlign=top;spacing=5;rounded=0;" vertex="1" parent="3D7FDG2aXA9G618_Kong-1">
                    <mxGeometry x="-2500" y="-720" width="740" height="280" as="geometry"/>
                </mxCell>
                <mxCell id="71" value="" style="shape=rect;fillColor=#fff2cc;strokeColor=none;fontSize=24;html=1;whiteSpace=wrap;align=left;verticalAlign=top;spacing=5;rounded=0;" vertex="1" parent="3D7FDG2aXA9G618_Kong-1">
                    <mxGeometry x="-1740" y="-720" width="850" height="280" as="geometry"/>
                </mxCell>
                <mxCell id="72" value="Доработка новых и разработка старых сервисов (разделение по предметным областям, создание ветрины данных)" style="shape=rect;fillColor=#ffe6cc;strokeColor=#d79b00;fontSize=18;html=1;whiteSpace=wrap;align=center;verticalAlign=top;spacing=5;rounded=0;" vertex="1" parent="3D7FDG2aXA9G618_Kong-1">
                    <mxGeometry x="-1530" y="-700" width="1880" height="60" as="geometry"/>
                </mxCell>
                <mxCell id="74" value="" style="shape=rect;fillColor=#fff2cc;strokeColor=none;fontSize=24;html=1;whiteSpace=wrap;align=left;verticalAlign=top;spacing=5;rounded=0;" vertex="1" parent="3D7FDG2aXA9G618_Kong-1">
                    <mxGeometry x="-845" y="-925.0000000000001" width="850" height="180" as="geometry"/>
                </mxCell>
                <mxCell id="76" value="" style="shape=rect;fillColor=#fff2cc;strokeColor=none;fontSize=24;html=1;whiteSpace=wrap;align=left;verticalAlign=top;spacing=5;rounded=0;" vertex="1" parent="3D7FDG2aXA9G618_Kong-1">
                    <mxGeometry x="45" y="-925.0000000000001" width="850" height="180" as="geometry"/>
                </mxCell>
                <mxCell id="78" value="Команда тестирования" style="rounded=0;whiteSpace=wrap;html=1;fillColor=#f5f5f5;fontColor=#333333;strokeColor=#666666;fontSize=18;" vertex="1" parent="3D7FDG2aXA9G618_Kong-1">
                    <mxGeometry x="-2640" y="-408" width="120" height="200" as="geometry"/>
                </mxCell>
                <mxCell id="79" value="" style="shape=rect;fillColor=#fff2cc;strokeColor=none;fontSize=24;html=1;whiteSpace=wrap;align=left;verticalAlign=top;spacing=5;rounded=0;" vertex="1" parent="3D7FDG2aXA9G618_Kong-1">
                    <mxGeometry x="-840" y="-399.60000000000014" width="850" height="180" as="geometry"/>
                </mxCell>
                <mxCell id="80" value="" style="shape=rect;fillColor=#fff2cc;strokeColor=none;fontSize=24;html=1;whiteSpace=wrap;align=left;verticalAlign=top;spacing=5;rounded=0;" vertex="1" parent="3D7FDG2aXA9G618_Kong-1">
                    <mxGeometry x="40" y="-398.0000000000002" width="850" height="180" as="geometry"/>
                </mxCell>
                <mxCell id="81" value="" style="shape=rect;fillColor=#fff2cc;strokeColor=none;fontSize=24;html=1;whiteSpace=wrap;align=left;verticalAlign=top;spacing=5;rounded=0;" vertex="1" parent="3D7FDG2aXA9G618_Kong-1">
                    <mxGeometry x="-2505" y="-408" width="740" height="196.8" as="geometry"/>
                </mxCell>
                <mxCell id="82" value="" style="shape=rect;fillColor=#fff2cc;strokeColor=none;fontSize=24;html=1;whiteSpace=wrap;align=left;verticalAlign=top;spacing=5;rounded=0;" vertex="1" parent="3D7FDG2aXA9G618_Kong-1">
                    <mxGeometry x="-1745" y="-408" width="850" height="196.8" as="geometry"/>
                </mxCell>
                <mxCell id="83" value="Тестирование спринтами" style="shape=rect;fillColor=#ffe6cc;strokeColor=#d79b00;fontSize=18;html=1;whiteSpace=wrap;align=center;verticalAlign=top;spacing=5;rounded=0;" vertex="1" parent="3D7FDG2aXA9G618_Kong-1">
                    <mxGeometry x="-1320" y="-388" width="1990" height="60" as="geometry"/>
                </mxCell>
                <mxCell id="84" value="Выделение доменных областей в монолитных БД и в DWH" style="shape=rect;fillColor=#ffe6cc;strokeColor=#d79b00;fontSize=18;html=1;whiteSpace=wrap;align=center;verticalAlign=top;spacing=5;rounded=0;" vertex="1" parent="3D7FDG2aXA9G618_Kong-1">
                    <mxGeometry x="-1420" y="-620" width="1880" height="60" as="geometry"/>
                </mxCell>
                <mxCell id="87" style="edgeStyle=none;html=1;" edge="1" parent="3D7FDG2aXA9G618_Kong-1" source="85" target="76">
                    <mxGeometry relative="1" as="geometry"/>
                </mxCell>
                <mxCell id="85" value="Помощь в переносе данных и поддержка изменений" style="shape=rect;fillColor=#ffe6cc;strokeColor=#d79b00;fontSize=18;html=1;whiteSpace=wrap;align=center;verticalAlign=top;spacing=5;rounded=0;" vertex="1" parent="3D7FDG2aXA9G618_Kong-1">
                    <mxGeometry x="-1420" y="-820" width="2090" height="60" as="geometry"/>
                </mxCell>
                <mxCell id="86" value="Исправление ошибок" style="shape=rect;fillColor=#ffe6cc;strokeColor=#d79b00;fontSize=18;html=1;whiteSpace=wrap;align=center;verticalAlign=top;spacing=5;rounded=0;" vertex="1" parent="3D7FDG2aXA9G618_Kong-1">
                    <mxGeometry x="-1320" y="-530" width="1990" height="60" as="geometry"/>
                </mxCell>
                <mxCell id="88" value="Миграция данных из обще БД" style="shape=rect;fillColor=#ffe6cc;strokeColor=#d79b00;fontSize=18;html=1;whiteSpace=wrap;align=center;verticalAlign=top;spacing=5;rounded=0;" vertex="1" parent="3D7FDG2aXA9G618_Kong-1">
                    <mxGeometry x="-830" y="-910" width="1280" height="60" as="geometry"/>
                </mxCell>
            </root>
        </mxGraphModel>
    </diagram>
    <diagram id="6faDem5PxRRIMGQd80wj" name="Roadmap_change">
        <mxGraphModel grid="1" page="1" gridSize="10" guides="1" tooltips="1" connect="1" arrows="1" fold="1" pageScale="1" pageWidth="3300" pageHeight="2339" math="0" shadow="0">
            <root>
                <mxCell id="0"/>
                <mxCell id="1" parent="0"/>
                <mxCell id="QlwB00z0-otb056kdUWZ-19" value="" style="shape=rect;fillColor=#fff2cc;strokeColor=none;fontSize=24;html=1;whiteSpace=wrap;align=left;verticalAlign=top;spacing=5;rounded=0;" vertex="1" parent="1">
                    <mxGeometry x="-2500" y="-530" width="1620" height="190" as="geometry"/>
                </mxCell>
                <mxCell id="QlwB00z0-otb056kdUWZ-18" value="" style="shape=rect;fillColor=#fff2cc;strokeColor=none;fontSize=24;html=1;whiteSpace=wrap;align=left;verticalAlign=top;spacing=5;rounded=0;" vertex="1" parent="1">
                    <mxGeometry x="-2500" y="-730" width="1620" height="180" as="geometry"/>
                </mxCell>
                <mxCell id="QlwB00z0-otb056kdUWZ-17" value="" style="shape=rect;fillColor=#fff2cc;strokeColor=none;fontSize=24;html=1;whiteSpace=wrap;align=left;verticalAlign=top;spacing=5;rounded=0;" vertex="1" parent="1">
                    <mxGeometry x="-2500" y="-930" width="1610" height="180" as="geometry"/>
                </mxCell>
                <mxCell id="QlwB00z0-otb056kdUWZ-3" value="" style="shape=rect;fillColor=#fff2cc;strokeColor=none;fontSize=24;html=1;whiteSpace=wrap;align=left;verticalAlign=top;spacing=5;rounded=0;" vertex="1" parent="1">
                    <mxGeometry x="-2500" y="-1146.8" width="1610" height="196.8" as="geometry"/>
                </mxCell>
                <mxCell id="QlwB00z0-otb056kdUWZ-4" value="T1 - API сервиса интеграции депозитов АБС" style="shape=rect;fillColor=#ffe6cc;strokeColor=#d79b00;fontSize=18;html=1;whiteSpace=wrap;align=left;verticalAlign=top;spacing=5;rounded=0;" vertex="1" parent="1">
                    <mxGeometry x="-2480" y="-1120" width="390" height="50" as="geometry"/>
                </mxCell>
                <mxCell id="QlwB00z0-otb056kdUWZ-5" value="T2 - Передача файлов на SFTP-сервер" style="shape=rect;fillColor=#ffe6cc;strokeColor=#d79b00;fontSize=18;html=1;whiteSpace=wrap;align=center;verticalAlign=top;spacing=5;rounded=0;" vertex="1" parent="1">
                    <mxGeometry x="-2120" y="-1040" width="550" height="60" as="geometry"/>
                </mxCell>
                <mxCell id="QlwB00z0-otb056kdUWZ-6" value="АБС&lt;div&gt;Сервис интеграции депозитов&lt;/div&gt;" style="rounded=0;whiteSpace=wrap;html=1;fillColor=#f5f5f5;fontColor=#333333;strokeColor=#666666;fontSize=18;" vertex="1" parent="1">
                    <mxGeometry x="-2630" y="-1146.8" width="120" height="196.8" as="geometry"/>
                </mxCell>
                <mxCell id="QlwB00z0-otb056kdUWZ-7" value="SFTP" style="rounded=0;whiteSpace=wrap;html=1;fillColor=#f5f5f5;fontColor=#333333;strokeColor=#666666;fontSize=18;" vertex="1" parent="1">
                    <mxGeometry x="-2630" y="-930" width="120" height="180" as="geometry"/>
                </mxCell>
                <mxCell id="QlwB00z0-otb056kdUWZ-8" value="Q2" style="shape=step;perimeter=stepPerimeter;whiteSpace=wrap;html=1;fixedSize=1;size=10;fillColor=#f5f5f5;strokeColor=#666666;fontSize=18;fontStyle=1;align=center;rounded=0;fontColor=#333333;" vertex="1" parent="1">
                    <mxGeometry x="-2500" y="-1240" width="1610" height="74.4" as="geometry"/>
                </mxCell>
                <mxCell id="QlwB00z0-otb056kdUWZ-11" value="T5 - Вывод ставок пользователю системы колл-центра" style="shape=rect;fillColor=#ffe6cc;strokeColor=#d79b00;fontSize=18;html=1;whiteSpace=wrap;align=center;verticalAlign=top;spacing=5;rounded=0;" vertex="1" parent="1">
                    <mxGeometry x="-1860" y="-640" width="940" height="50" as="geometry"/>
                </mxCell>
                <mxCell id="QlwB00z0-otb056kdUWZ-12" value="T4 - Получение ставок через API интеграции АБС" style="shape=rect;fillColor=#ffe6cc;strokeColor=#d79b00;fontSize=18;html=1;whiteSpace=wrap;align=center;verticalAlign=top;spacing=5;rounded=0;" vertex="1" parent="1">
                    <mxGeometry x="-2060" y="-720" width="480" height="60" as="geometry"/>
                </mxCell>
                <mxCell id="QlwB00z0-otb056kdUWZ-13" value="T6 - Получение файлов с SFTP для операторов партнера" style="shape=rect;fillColor=#ffe6cc;strokeColor=#d79b00;fontSize=18;html=1;whiteSpace=wrap;align=center;verticalAlign=top;spacing=5;rounded=0;" vertex="1" parent="1">
                    <mxGeometry x="-1560" y="-470" width="640" height="50" as="geometry"/>
                </mxCell>
                <mxCell id="QlwB00z0-otb056kdUWZ-14" value="Система колл-центра" style="rounded=0;whiteSpace=wrap;html=1;fillColor=#f5f5f5;fontColor=#333333;strokeColor=#666666;fontSize=18;" vertex="1" parent="1">
                    <mxGeometry x="-2630" y="-730" width="120" height="180" as="geometry"/>
                </mxCell>
                <mxCell id="QlwB00z0-otb056kdUWZ-15" value="Система&amp;nbsp; партнерского колл-центра" style="rounded=0;whiteSpace=wrap;html=1;fillColor=#f5f5f5;fontColor=#333333;strokeColor=#666666;fontSize=18;" vertex="1" parent="1">
                    <mxGeometry x="-2630" y="-530" width="120" height="190" as="geometry"/>
                </mxCell>
                <mxCell id="QlwB00z0-otb056kdUWZ-16" value="T3 - Развернуть SFTP сервер" style="shape=rect;fillColor=#ffe6cc;strokeColor=#d79b00;fontSize=18;html=1;whiteSpace=wrap;align=center;verticalAlign=top;spacing=5;rounded=0;" vertex="1" parent="1">
                    <mxGeometry x="-2400" y="-910" width="280" height="60" as="geometry"/>
                </mxCell>
            </root>
        </mxGraphModel>
    </diagram>
</mxfile>